{
  "asset": {
    "version": "2.0"
  },
  "scene": 0,
  "scenes": [
    {
      "nodes": [
        0
      ]
    }
  ],
  "nodes": [
    {
      "name": "cuboid",
      "mesh": 0
    }
  ],
  "meshes": [
    {
      "name": "cuboid",
      "primitives": [
        {
          "attributes": {
            "NORMAL": 1,
            "POSITION": 2,
            "TANGENT": 3,
            "TEXCOORD_0": 4,
            "COLOR_0": 5
          },
          "indices": 0,
          "mode": 4
        },
        {
          "attributes": {
            "NORMAL": 7,
            "POSITION": 8,
            "TANGENT": 9,
            "TEXCOORD_0": 10,
            "COLOR_0": 11
          },
          "indices": 0,
          "mode": 4
        },
        {
          "attributes": {
            "NORMAL": 13,
            "POSITION": 14,
            "TANGENT": 15,
            "TEXCOORD_0": 16,
            "COLOR_0": 17
          },
          "indices": 0,
          "mode": 4
        },
        {
          "attributes": {
            "NORMAL": 19,
            "POSITION": 20,
            "TANGENT": 21,
            "TEXCOORD_0": 22,
            "COLOR_0": 23
          },
          "indices": 0,
          "mode": 4
        },
        {
          "attributes": {
            "NORMAL": 25,
            "POSITION": 26,
            "TANGENT": 27,
            "TEXCOORD_0": 28,
            "COLOR_0": 29
          },
          "indices": 0,
          "mode": 4
        },
        {
          "attributes": {
            "NORMAL": 31,
            "POSITION": 32,
            "TANGENT": 33,
            "TEXCOORD_0": 34,
            "COLOR_0": 35
          },
          "indices": 0,
          "mode": 4
        }
      ]
    }
  ],
  "buffers": [
    {
      "uri": "data:application/octet-stream;base64,",
      "byteLength": 1776
    }
  ],
  "bufferViews": [
    {
      "buffer": 0,
      "byteOffset": 0,
      "byteLength": 12
    },
    {
      "buffer": 0,
      "byteOffset": 12,
      "byteLength": 48
    },
    {
      "buffer": 0,
      "byteOffset": 60,
      "byteLength": 48
    },
    {
      "buffer": 0,
      "byteOffset": 120,
      "byteLength": 64
    },
    {
      "buffer": 0,
      "byteOffset": 184,
      "byteLength": 32
    },
    {
      "buffer": 0,
      "byteOffset": 224,
      "byteLength": 64
    },
    {
      "buffer": 0,
      "byteOffset": 288,
      "byteLength": 64
    },
    {
      "buffer": 0,
      "byteOffset": 356,
      "byteLength": 64
    },
    {
      "buffer": 0,
      "byteOffset": 420,
      "byteLength": 48
    },
    {
      "buffer": 0,
      "byteOffset": 472,
      "byteLength": 48
    },
    {
      "buffer": 0,
      "byteOffset": 520,
      "byteLength": 48
    },
    {
      "buffer": 0,
      "byteOffset": 576,
      "byteLength": 48
    },
    {
      "buffer": 0,
      "byteOffset": 624,
      "byteLength": 48
    },
    {
      "buffer": 0,
      "byteOffset": 672,
      "byteLength": 48
    },
    {
      "buffer": 0,
      "byteOffset": 720,
      "byteLength": 48
    },
    {
      "buffer": 0,
      "byteOffset": 768,
      "byteLength": 48
    },
    {
      "buffer": 0,
      "byteOffset": 816,
      "byteLength": 48
    },
    {
      "buffer": 0,
      "byteOffset": 864,
      "byteLength": 48
    },
    {
      "buffer": 0,
      "byteOffset": 912,
      "byteLength": 48
    },
    {
      "buffer": 0,
      "byteOffset": 960,
      "byteLength": 48
    },
    {
      "buffer": 0,
      "byteOffset": 1008,
      "byteLength": 48
    },
    {
      "buffer": 0,
      "byteOffset": 1056,
      "byteLength": 48
    },
    {
      "buffer": 0,
      "byteOffset": 1104,
      "byteLength": 48
    },
    {
      "buffer": 0,
      "byteOffset": 1152,
      "byteLength": 48
    },
    {
      "buffer": 0,
      "byteOffset": 1200,
      "byteLength": 48
    },
    {
      "buffer": 0,
      "byteOffset": 1248,
      "byteLength": 48
    },
    {
      "buffer": 0,
      "byteOffset": 1296,
      "byteLength": 48
    },
    {
      "buffer": 0,
      "byteOffset": 1344,
      "byteLength": 48
    },
    {
      "buffer": 0,
      "byteOffset": 1392,
      "byteLength": 48
    },
    {
      "buffer": 0,
      "byteOffset": 1440,
      "byteLength": 48
    },
    {
      "buffer": 0,
      "byteOffset": 1488,
      "byteLength": 48
    },
    {
      "buffer": 0,
      "byteOffset": 1536,
      "byteLength": 48
    },
    {
      "buffer": 0,
      "byteOffset": 1584,
      "byteLength": 48
    },
    {
      "buffer": 0,
      "byteOffset": 1632,
      "byteLength": 48
    },
    {
      "buffer": 0,
      "byteOffset": 1680,
      "byteLength": 48
    },
    {
      "buffer": 0,
      "byteOffset": 1728,
      "byteLength": 48
    }
  ],
  "accessors": [
    {
      "bufferView": 0,
      "byteOffset": 0,
      "componentType": 5123,
      "count": 6,
      "type": "SCALAR",
      "min": [
        0
      ],
      "max": [
        3
      ]
    },
    {
      "bufferView": 1,
      "byteOffset": 0,
      "componentType": 5126,
      "count": 4,
      "type": "VEC3",
      "min": [
        0.0,
        0.0,
        1.0
      ],
      "max": [
        0.0,
        0.0,
        1.0
      ]
    },
    {
      "bufferView": 2,
      "byteOffset": 0,
      "componentType": 5126,
      "count": 4,
      "type": "VEC3",
      "min": [
        0.0,
        0.0,
        0.0
      ],
      "max": [
        1.0,
        1.0,
        0.0
      ]
    },
    {
      "bufferView": 3,
      "byteOffset": 0,
      "componentType": 5126,
      "count": 4,
      "type": "VEC4",
      "min": [
        0.0,
        0.0,
        1.0,
        1.0
      ],
      "max": [
        0.0,
        0.0,
        1.0,
        1.0
      ]
    },
    {
      "bufferView": 4,
      "byteOffset": 0,
      "componentType": 5126,
      "count": 4,
      "type": "VEC2",
      "min": [
        0.0,
        0.0
      ],
      "max": [
        1.0,
        1.0
      ]
    },
    {
      "bufferView": 5,
      "byteOffset": 0,
      "componentType": 5126,
      "count": 4,
      "type": "VEC4",
      "min": [
        0.0,
        0.0,
        0.0,
        1.0
      ],
      "max": [
        1.0,
        1.0,
        1.0,
        1.0
      ]
    },
    {
      "bufferView": 0,
      "byteOffset": 0,
      "componentType": 5123,
      "count": 6,
      "type": "SCALAR",
      "min": [
        0
      ],
      "max": [
        3
      ]
    },
    {
      "bufferView": 1,
      "byteOffset": 0,
      "componentType": 5126,
      "count": 4,
      "type": "VEC3",
      "min": [
        0.0,
        0.0,
        1.0
      ],
      "max": [
        0.0,
        0.0,
        1.0
      ]
    },
    {
      "bufferView": 6,
      "byteOffset": 0,
      "componentType": 5126,
      "count": 4,
      "type": "VEC3",
      "min": [
        0.0,
        0.0,
        -1.0
      ],
      "max": [
        1.0,
        1.0,
        -1.0
      ]
    },
    {
      "bufferView": 3,
      "byteOffset": 0,
      "componentType": 5126,
      "count": 4,
      "type": "VEC4",
      "min": [
        0.0,
        0.0,
        1.0,
        1.0
      ],
      "max": [
        0.0,
        0.0,
        1.0,
        1.0
      ]
    },
    {
      "bufferView": 4,
      "byteOffset": 0,
      "componentType": 5126,
      "count": 4,
      "type": "VEC2",
      "min": [
        0.0,
        0.0
      ],
      "max": [
        1.0,
        1.0
      ]
    },
    {
      "bufferView": 5,
      "byteOffset": 0,
      "componentType": 5126,
      "count": 4,
      "type": "VEC4",
      "min": [
        0.0,
        0.0,
        0.0,
        1.0
      ],
      "max": [
        1.0,
        1.0,
        1.0,
        1.0
      ]
    },
    {
      "bufferView": 0,
      "byteOffset": 0,
      "componentType": 5123,
      "count": 6,
      "type": "SCALAR",
      "min": [
        0
      ],
      "max": [
        3
      ]
    },
    {
      "bufferView": 1,
      "byteOffset": 0,
      "componentType": 5126,
      "count": 4,
      "type": "VEC3",
      "min": [
        0.0,
        0.0,
        1.0
      ],
      "max": [
        0.0,
        0.0,
        1.0
      ]
    },
    {
      "bufferView": 7,
      "byteOffset": 0,
      "componentType": 5126,
      "count": 4,
      "type": "VEC3",
      "min": [
        0.0,
        1.0,
        -1.0
      ],
      "max": [
        1.0,
        1.0,
        0.0
      ]
    },
    {
      "bufferView": 3,
      "byteOffset": 0,
      "componentType": 5126,
      "count": 4,
      "type": "VEC4",
      "min": [
        0.0,
        0.0,
        1.0,
        1.0
      ],
      "max": [
        0.0,
        0.0,
        1.0,
        1.0
      ]
    },
    {
      "bufferView": 4,
      "byteOffset": 0,
      "componentType": 5126,
      "count": 4,
      "type": "VEC2",
      "min": [
        0.0,
        0.0
      ],
      "max": [
        1.0,
        1.0
      ]
    },
    {
      "bufferView": 5,
      "byteOffset": 0,
      "componentType": 5126,
      "count": 4,
      "type": "VEC4",
      "min": [
        0.0,
        0.0,
        0.0,
        1.0
      ],
      "max": [
        1.0,
        1.0,
        1.0,
        1.0
      ]
    },
    {
      "bufferView": 0,
      "byteOffset": 0,
      "componentType": 5123,
      "count": 6,
      "type": "SCALAR",
      "min": [
        0
      ],
      "max": [
        3
      ]
    },
    {
      "bufferView": 1,
      "byteOffset": 0,
      "componentType": 5126,
      "count": 4,
      "type": "VEC3",
      "min": [
        0.0,
        0.0,
        1.0
      ],
      "max": [
        0.0,
        0.0,
        1.0
      ]
    },
    {
      "bufferView": 8,
      "byteOffset": 0,
      "componentType": 5126,
      "count": 4,
      "type": "VEC3",
      "min": [
        0.0,
        0.0,
        -1.0
      ],
      "max": [
        1.0,
        0.0,
        0.0
      ]
    },
    {
      "bufferView": 3,
      "byteOffset": 0,
      "componentType": 5126,
      "count": 4,
      "type": "VEC4",
      "min": [
        0.0,
        0.0,
        1.0,
        1.0
      ],
      "max": [
        0.0,
        0.0,
        1.0,
        1.0
      ]
    },
    {
      "bufferView": 4,
      "byteOffset": 0,
      "componentType": 5126,
      "count": 4,
      "type": "VEC2",
      "min": [
        0.0,
        0.0
      ],
      "max": [
        1.0,
        1.0
      ]
    },
    {
      "bufferView": 5,
      "byteOffset": 0,
      "componentType": 5126,
      "count": 4,
      "type": "VEC4",
      "min": [
        0.0,
        0.0,
        0.0,
        1.0
      ],
      "max": [
        1.0,
        1.0,
        1.0,
        1.0
      ]
    },
    {
      "bufferView": 0,
      "byteOffset": 0,
      "componentType": 5123,
      "count": 6,
      "type": "SCALAR",
      "min": [
        0
      ],
      "max": [
        3
      ]
    },
    {
      "bufferView": 1,
      "byteOffset": 0,
      "componentType": 5126,
      "count": 4,
      "type": "VEC3",
      "min": [
        0.0,
        0.0,
        1.0
      ],
      "max": [
        0.0,
        0.0,
        1.0
      ]
    },
    {
      "bufferView": 9,
      "byteOffset": 0,
      "componentType": 5126,
      "count": 4,
      "type": "VEC3",
      "min": [
        0.0,
        0.0,
        -1.0
      ],
      "max": [
        0.0,
        1.0,
        0.0
      ]
    },
    {
      "bufferView": 3,
      "byteOffset": 0,
      "componentType": 5126,
      "count": 4,
      "type": "VEC4",
      "min": [
        0.0,
        0.0,
        1.0,
        1.0
      ],
      "max": [
        0.0,
        0.0,
        1.0,
        1.0
      ]
    },
    {
      "bufferView": 4,
      "byteOffset": 0,
      "componentType": 5126,
      "count": 4,
      "type": "VEC2",
      "min": [
        0.0,
        0.0
      ],
      "max": [
        1.0,
        1.0
      ]
    },
    {
      "bufferView": 5,
      "byteOffset": 0,
      "componentType": 5126,
      "count": 4,
      "type": "VEC4",
      "min": [
        0.0,
        0.0,
        0.0,
        1.0
      ],
      "max": [
        1.0,
        1.0,
        1.0,
        1.0
      ]
    },
    {
      "bufferView": 0,
      "byteOffset": 0,
      "componentType": 5123,
      "count": 6,
      "type": "SCALAR",
      "min": [
        0
      ],
      "max": [
        3
      ]
    },
    {
      "bufferView": 1,
      "byteOffset": 0,
      "componentType": 5126,
      "count": 4,
      "type": "VEC3",
      "min": [
        0.0,
        0.0,
        1.0
      ],
      "max": [
        0.0,
        0.0,
        1.0
      ]
    },
    {
      "bufferView": 10,
      "byteOffset": 0,
      "componentType": 5126,
      "count": 4,
      "type": "VEC3",
      "min": [
        1.0,
        0.0,
        -1.0
      ],
      "max": [
        1.0,
        1.0,
        0.0
      ]
    },
    {
      "bufferView": 3,
      "byteOffset": 0,
      "componentType": 5126,
      "count": 4,
      "type": "VEC4",
      "min": [
        0.0,
        0.0,
        1.0,
        1.0
      ],
      "max": [
        0.0,
        0.0,
        1.0,
        1.0
      ]
    },
    {
      "bufferView": 4,
      "byteOffset": 0,
      "componentType": 5126,
      "count": 4,
      "type": "VEC2",
      "min": [
        0.0,
        0.0
      ],
      "max": [
        1.0,
        1.0
      ]
    },
    {
      "bufferView": 5,
      "byteOffset": 0,
      "componentType": 5126,
      "count": 4,
      "type": "VEC4",
      "min": [
        0.0,
        0.0,
        0.0,
        1.0
      ],
      "max": [
        1.0,
        1.0,
        1.0,
        1.0
      ]
    }
  ]
}