{
  "asset": {
    "version": "2.0"
  },
  "scene": 0,
  "scenes": [
    {
      "nodes": [
        0
      ]
    }
  ],
  "nodes": [
    {
      "name": "cuboid",
      "mesh": 0
    }
  ],
  "meshes": [
    {
      "name": "cuboid",
      "primitives": [
        {
          "attributes": {
            "NORMAL": 1,
            "POSITION": 2,
            "COLOR_0": 3
          },
          "indices": 0,
          "mode": 4
        },
        {
          "attributes": {
            "NORMAL": 5,
            "POSITION": 6,
            "COLOR_0": 7
          },
          "indices": 4,
          "mode": 4
        },
        {
          "attributes": {
            "NORMAL": 9,
            "POSITION": 10,
            "COLOR_0": 11
          },
          "indices": 8,
          "mode": 4
        },
        {
          "attributes": {
            "NORMAL": 13,
            "POSITION": 14,
            "COLOR_0": 15
          },
          "indices": 12,
          "mode": 4
        },
        {
          "attributes": {
            "NORMAL": 17,
            "POSITION": 18,
            "COLOR_0": 19
          },
          "indices": 16,
          "mode": 4
        },
        {
          "attributes": {
            "NORMAL": 21,
            "POSITION": 22,
            "COLOR_0": 23
          },
          "indices": 20,
          "mode": 4
        }
      ]
    }
  ],
  "buffers": [
    {
      "uri": "data:application/octet-stream;base64,",
      "byteLength": 736
    }
  ],
  "bufferViews": [
    {
      "buffer": 0,
      "byteOffset": 0,
      "byteLength": 12
    },
    {
      "buffer": 0,
      "byteOffset": 12,
      "byteLength": 48
    },
    {
      "buffer": 0,
      "byteOffset": 60,
      "byteLength": 48
    },
    {
      "buffer": 0,
      "byteOffset": 120,
      "byteLength": 64
    },
    {
      "buffer": 0,
      "byteOffset": 0,
      "byteLength": 12
    },
    {
      "buffer": 0,
      "byteOffset": 188,
      "byteLength": 48
    },
    {
      "buffer": 0,
      "byteOffset": 244,
      "byteLength": 48
    },
    {
      "buffer": 0,
      "byteOffset": 120,
      "byteLength": 64
    },
    {
      "buffer": 0,
      "byteOffset": 0,
      "byteLength": 12
    },
    {
      "buffer": 0,
      "byteOffset": 296,
      "byteLength": 48
    },
    {
      "buffer": 0,
      "byteOffset": 352,
      "byteLength": 48
    },
    {
      "buffer": 0,
      "byteOffset": 120,
      "byteLength": 64
    },
    {
      "buffer": 0,
      "byteOffset": 400,
      "byteLength": 12
    },
    {
      "buffer": 0,
      "byteOffset": 416,
      "byteLength": 48
    },
    {
      "buffer": 0,
      "byteOffset": 472,
      "byteLength": 48
    },
    {
      "buffer": 0,
      "byteOffset": 120,
      "byteLength": 64
    },
    {
      "buffer": 0,
      "byteOffset": 0,
      "byteLength": 12
    },
    {
      "buffer": 0,
      "byteOffset": 524,
      "byteLength": 48
    },
    {
      "buffer": 0,
      "byteOffset": 580,
      "byteLength": 48
    },
    {
      "buffer": 0,
      "byteOffset": 120,
      "byteLength": 64
    },
    {
      "buffer": 0,
      "byteOffset": 0,
      "byteLength": 12
    },
    {
      "buffer": 0,
      "byteOffset": 632,
      "byteLength": 48
    },
    {
      "buffer": 0,
      "byteOffset": 688,
      "byteLength": 48
    },
    {
      "buffer": 0,
      "byteOffset": 120,
      "byteLength": 64
    }
  ],
  "accessors": [
    {
      "bufferView": 0,
      "byteOffset": 0,
      "componentType": 5123,
      "count": 6,
      "type": "SCALAR",
      "min": [
        0
      ],
      "max": [
        3
      ]
    },
    {
      "bufferView": 1,
      "byteOffset": 0,
      "componentType": 5126,
      "count": 4,
      "type": "VEC3",
      "min": [
        0.0,
        0.0,
        1.0
      ],
      "max": [
        0.0,
        0.0,
        1.0
      ]
    },
    {
      "bufferView": 2,
      "byteOffset": 0,
      "componentType": 5126,
      "count": 4,
      "type": "VEC3",
      "min": [
        0.0,
        0.0,
        0.0
      ],
      "max": [
        1.0,
        1.0,
        0.0
      ]
    },
    {
      "bufferView": 3,
      "byteOffset": 0,
      "componentType": 5126,
      "count": 4,
      "type": "VEC4",
      "min": [
        0.0,
        0.0,
        0.0,
        1.0
      ],
      "max": [
        1.0,
        1.0,
        1.0,
        1.0
      ]
    },
    {
      "bufferView": 4,
      "byteOffset": 0,
      "componentType": 5123,
      "count": 6,
      "type": "SCALAR",
      "min": [
        0
      ],
      "max": [
        3
      ]
    },
    {
      "bufferView": 5,
      "byteOffset": 0,
      "componentType": 5126,
      "count": 4,
      "type": "VEC3",
      "min": [
        0.0,
        0.0,
        -1.0
      ],
      "max": [
        0.0,
        0.0,
        -1.0
      ]
    },
    {
      "bufferView": 6,
      "byteOffset": 0,
      "componentType": 5126,
      "count": 4,
      "type": "VEC3",
      "min": [
        0.0,
        0.0,
        -1.0
      ],
      "max": [
        1.0,
        1.0,
        -1.0
      ]
    },
    {
      "bufferView": 7,
      "byteOffset": 0,
      "componentType": 5126,
      "count": 4,
      "type": "VEC4",
      "min": [
        0.0,
        0.0,
        0.0,
        1.0
      ],
      "max": [
        1.0,
        1.0,
        1.0,
        1.0
      ]
    },
    {
      "bufferView": 8,
      "byteOffset": 0,
      "componentType": 5123,
      "count": 6,
      "type": "SCALAR",
      "min": [
        0
      ],
      "max": [
        3
      ]
    },
    {
      "bufferView": 9,
      "byteOffset": 0,
      "componentType": 5126,
      "count": 4,
      "type": "VEC3",
      "min": [
        0.0,
        1.0,
        0.0
      ],
      "max": [
        0.0,
        1.0,
        0.0
      ]
    },
    {
      "bufferView": 10,
      "byteOffset": 0,
      "componentType": 5126,
      "count": 4,
      "type": "VEC3",
      "min": [
        0.0,
        1.0,
        -1.0
      ],
      "max": [
        1.0,
        1.0,
        0.0
      ]
    },
    {
      "bufferView": 11,
      "byteOffset": 0,
      "componentType": 5126,
      "count": 4,
      "type": "VEC4",
      "min": [
        0.0,
        0.0,
        0.0,
        1.0
      ],
      "max": [
        1.0,
        1.0,
        1.0,
        1.0
      ]
    },
    {
      "bufferView": 12,
      "byteOffset": 0,
      "componentType": 5123,
      "count": 6,
      "type": "SCALAR",
      "min": [
        0
      ],
      "max": [
        3
      ]
    },
    {
      "bufferView": 13,
      "byteOffset": 0,
      "componentType": 5126,
      "count": 4,
      "type": "VEC3",
      "min": [
        0.0,
        -1.0,
        0.0
      ],
      "max": [
        0.0,
        -1.0,
        0.0
      ]
    },
    {
      "bufferView": 14,
      "byteOffset": 0,
      "componentType": 5126,
      "count": 4,
      "type": "VEC3",
      "min": [
        0.0,
        0.0,
        -1.0
      ],
      "max": [
        1.0,
        0.0,
        0.0
      ]
    },
    {
      "bufferView": 15,
      "byteOffset": 0,
      "componentType": 5126,
      "count": 4,
      "type": "VEC4",
      "min": [
        0.0,
        0.0,
        0.0,
        1.0
      ],
      "max": [
        1.0,
        1.0,
        1.0,
        1.0
      ]
    },
    {
      "bufferView": 16,
      "byteOffset": 0,
      "componentType": 5123,
      "count": 6,
      "type": "SCALAR",
      "min": [
        0
      ],
      "max": [
        3
      ]
    },
    {
      "bufferView": 17,
      "byteOffset": 0,
      "componentType": 5126,
      "count": 4,
      "type": "VEC3",
      "min": [
        -1.0,
        0.0,
        0.0
      ],
      "max": [
        -1.0,
        0.0,
        0.0
      ]
    },
    {
      "bufferView": 18,
      "byteOffset": 0,
      "componentType": 5126,
      "count": 4,
      "type": "VEC3",
      "min": [
        0.0,
        0.0,
        -1.0
      ],
      "max": [
        0.0,
        1.0,
        0.0
      ]
    },
    {
      "bufferView": 19,
      "byteOffset": 0,
      "componentType": 5126,
      "count": 4,
      "type": "VEC4",
      "min": [
        0.0,
        0.0,
        0.0,
        1.0
      ],
      "max": [
        1.0,
        1.0,
        1.0,
        1.0
      ]
    },
    {
      "bufferView": 20,
      "byteOffset": 0,
      "componentType": 5123,
      "count": 6,
      "type": "SCALAR",
      "min": [
        0
      ],
      "max": [
        3
      ]
    },
    {
      "bufferView": 21,
      "byteOffset": 0,
      "componentType": 5126,
      "count": 4,
      "type": "VEC3",
      "min": [
        1.0,
        0.0,
        0.0
      ],
      "max": [
        1.0,
        0.0,
        0.0
      ]
    },
    {
      "bufferView": 22,
      "byteOffset": 0,
      "componentType": 5126,
      "count": 4,
      "type": "VEC3",
      "min": [
        1.0,
        0.0,
        -1.0
      ],
      "max": [
        1.0,
        1.0,
        0.0
      ]
    },
    {
      "bufferView": 23,
      "byteOffset": 0,
      "componentType": 5126,
      "count": 4,
      "type": "VEC4",
      "min": [
        0.0,
        0.0,
        0.0,
        1.0
      ],
      "max": [
        1.0,
        1.0,
        1.0,
        1.0
      ]
    }
  ]
}